#!OML:ASF H:\Terrain\Patient Classification 1\Animal2\Wednesday\Animal2.ASF
:FULLY-SPECIFIED
:DEGREES
4377
root 17.2978 17.8369 -18.1149 -173.916 -24.2392 -538.296
lowerback 2.3342 -2.33104 2.83674
upperback -2.43167 -3.00834 2.68222
thorax -3.81566 -1.57918 1.35042
lowerneck 13.6722 13.9687 20.5938
upperneck -2.63712 21.2326 -18.117
head 1.22177 11.1513 -8.6116
rclavicle -9.0944e-015 -2.38542e-015
rhumerus -28.1221 0.211315 -84.9328
rradius 27.7506
rwrist 15.3631
rhand -12.1889 2.85108
rfingers 7.12502
rthumb 13.875 -26.6661
lclavicle -9.0944e-015 -2.38542e-015
lhumerus -57.3508 -32.3945 100.356
lradius 43.4997
lwrist 53.668
lhand -30.7167 47.1272
lfingers 7.12502
lthumb -4.00958 77.0692
rfemur -8.94938 -8.62623 21.6729
rtibia 24.6097
rfoot -21.6947 -11.015
rtoes 3.19471
lfemur -11.9047 7.75842 -23.1661
ltibia 24.9016
lfoot -22.5192 10.1328
ltoes 7.38585
4378
root 17.2821 17.8414 -18.1161 -173.934 -24.2147 -538.148
lowerback 2.27396 -2.27178 2.86463
upperback -2.41508 -2.93403 2.8119
thorax -3.75908 -1.54372 1.46088
lowerneck 13.7937 13.9144 20.4727
upperneck -2.84197 21.1402 -18.3738
head 1.14291 11.118 -8.70506
rclavicle 1.72446e-014 2.54444e-014
rhumerus -28.1823 0.371979 -84.6823
rradius 27.925
rwrist 15.186
rhand -12.0344 2.84856
rfingers 7.12502
rthumb 14.0239 -26.6583
lclavicle 1.72446e-014 2.54444e-014
lhumerus -57.5455 -32.4781 100.739
lradius 43.6409
lwrist 53.9155
lhand -31.0109 46.6261
lfingers 7.12502
lthumb -4.29371 76.5626
rfemur -9.02433 -8.35935 21.7601
rtibia 24.7337
rfoot -21.8673 -10.708
rtoes 5.49422
lfemur -11.9126 7.90775 -23.0769
ltibia 24.8514
lfoot -22.2874 10.3895
ltoes 5.16587
4379
root 17.2633 17.8464 -18.1136 -173.964 -24.2487 -538.158
lowerback 2.31308 -2.23867 2.79639
upperback -2.38153 -2.89211 2.91769
thorax -3.73762 -1.52083 1.60628
lowerneck 13.9071 13.8639 20.4727
upperneck -2.94006 21.0744 -18.8201
head 1.13681 11.1045 -8.86229
rclavicle 3.598e-014 -1.19271e-014
rhumerus -28.2389 0.519902 -84.3889
rradius 28.0987
rwrist 14.8913
rhand -11.9967 2.95385
rfingers 7.12502
rthumb 14.0602 -26.5505
lclavicle 3.598e-014 -1.19271e-014
lhumerus -57.5494 -32.3188 100.999
lradius 43.7612
lwrist 53.9023
lhand -31.0207 46.7807
lfingers 7.12502
lthumb -4.30314 76.717
rfemur -9.03828 -8.36243 21.6451
rtibia 24.863
rfoot -21.8524 -10.4525
rtoes 6.5843
lfemur -11.8239 7.88094 -23.1225
ltibia 24.8345
lfoot -22.469 10.0263
ltoes 7.52006
4380
root 17.2459 17.8399 -18.1126 -174.021 -24.2929 -538.124
lowerback 2.41832 -2.24134 2.83874
upperback -2.42304 -2.8887 2.94553
thorax -3.84106 -1.52129 1.61803
lowerneck 14.065 13.8258 20.6074
upperneck -2.8623 21.0691 -19.0903
head 1.18019 11.1174 -8.9735
rclavicle -2.5842e-015 1.51076e-014
rhumerus -28.4151 0.484505 -84.2104
rradius 28.194
rwrist 14.7479
rhand -12.279 3.12018
rfingers 7.12502
rthumb 13.7881 -26.4029
lclavicle -2.5842e-015 1.51076e-014
lhumerus -57.6661 -32.0967 101.147
lradius 43.8096
lwrist 53.7397
lhand -30.6513 46.5038
lfingers 7.12502
lthumb -3.94639 76.447
rfemur -9.0452 -8.49201 21.5865
rtibia 25.0201
rfoot -21.8154 -10.3721
rtoes 7.20938
lfemur -11.7226 7.80045 -23.1161
ltibia 24.8492
lfoot -22.8494 9.43795
ltoes 10.2012
4381
root 17.2325 17.8289 -18.1171 -174.148 -24.2504 -537.92
lowerback 2.45821 -2.23147 2.96875
upperback -2.41228 -2.8708 3.01271
thorax -3.8558 -1.51688 1.61574
lowerneck 14.0516 13.8513 20.5791
upperneck -2.76036 21.1008 -19.1374
head 1.22104 11.1345 -8.97496
rclavicle 3.73715e-014 -3.97569e-015
rhumerus -28.4795 0.551865 -84.0978
rradius 28.222
rwrist 14.4454
rhand -12.4579 3.01083
rfingers 7.12502
rthumb 13.6158 -26.5239
lclavicle 3.73715e-014 -3.97569e-015
lhumerus -57.7177 -31.9089 101.273
lradius 43.7604
lwrist 53.6906
lhand -30.2512 46.3149
lfingers 7.12502
lthumb -3.56001 76.265
rfemur -9.06066 -8.41392 21.7456
rtibia 25.2076
rfoot -21.7617 -10.5299
rtoes 7.08506
lfemur -11.6528 8.03508 -22.928
ltibia 24.9351
lfoot -22.8973 9.3481
ltoes 7.94454
4382
root 17.2145 17.8221 -18.1217 -174.385 -24.2253 -537.589
lowerback 2.54273 -2.19396 3.21291
upperback -2.36944 -2.81224 3.16428
thorax -3.86413 -1.49613 1.63588
lowerneck 14.032 13.8627 20.4537
upperneck -2.71509 21.0909 -19.2174
head 1.2317 11.1316 -8.98096
rclavicle -3.89121e-014 -1.51076e-014
rhumerus -28.4648 0.671869 -83.8655
rradius 28.1438
rwrist 13.9336
rhand -12.4759 2.80754
rfingers 7.12502
rthumb 13.5984 -26.7283
lclavicle -3.89121e-014 -1.51076e-014
lhumerus -57.7225 -31.7438 101.615
lradius 43.6329
lwrist 53.6783
lhand -29.7446 46.5364
lfingers 7.12502
lthumb -3.07076 76.494
rfemur -9.02923 -8.40366 22.0006
rtibia 25.4246
rfoot -21.7294 -10.7547
rtoes 5.79742
lfemur -11.56 8.20357 -22.6084
ltibia 25.1254
lfoot -23.0689 9.20148
ltoes 6.96399
4383
root 17.1938 17.8112 -18.1228 -174.403 -24.2728 -537.541
lowerback 2.51927 -2.15467 3.26278
upperback -2.36084 -2.76116 3.22149
thorax -3.84169 -1.47274 1.66284
lowerneck 14.1075 13.853 20.4225
upperneck -2.80401 21.0758 -19.335
head 1.20168 11.131 -9.02579
rclavicle 6.65432e-014 -2.54444e-014
rhumerus -28.4517 0.483304 -83.5611
rradius 27.9933
rwrist 13.6836
rhand -12.9013 2.99045
rfingers 7.12502
rthumb 13.1883 -26.5724
lclavicle 6.65432e-014 -2.54444e-014
lhumerus -57.7819 -31.7645 102.177
lradius 43.3819
lwrist 53.6742
lhand -29.2176 46.8923
lfingers 7.12502
lthumb -2.5619 76.8567
rfemur -9.15305 -8.65781 21.9682
rtibia 25.7774
rfoot -21.9386 -10.9686
rtoes 3.66095
lfemur -11.5998 8.10587 -22.6245
ltibia 25.2805
lfoot -23.3653 8.96165
ltoes 7.83186
